<?xml version="1.0" encoding="UTF-8"?> <svg xmlns="http://www.w3.org/2000/svg" id="Layer_1" viewBox="0 0 497.73 98.91"><path d="M491.84,19.15c.82,0,1.55-.09,1.55-1.05,0-.82-.79-.92-1.46-.92h-1.32v1.97h1.23Zm-1.23,3.79h-1.1v-6.7h2.54c1.62,0,2.44,.57,2.44,1.93,0,1.23-.73,1.72-1.74,1.83l1.88,2.94h-1.25l-1.74-2.86h-1.03v2.86Zm1.19-8.46c-2.62,0-4.66,2.04-4.66,5,0,2.75,1.78,5,4.66,5,2.6,0,4.63-2.04,4.63-5s-2.03-5-4.63-5m0,11.05c-3.48,0-5.96-2.6-5.96-6.05,0-3.64,2.76-6.06,5.96-6.06s5.93,2.41,5.93,6.06-2.74,6.05-5.93,6.05" fill="#808285"></path><path d="M3.14,31.73c0,8.72,5.2,15.92,15.19,15.92s15.44-7.56,15.44-15.92-5.04-15.82-15.44-15.82S3.14,23.89,3.14,31.73M36.99,14.4V49.45c-.12,2.95,0,19.12-18.33,18.62-9.08,0-16.1-2.95-16.59-11.52h3.14c.66,6.56,6.61,9.14,13.53,9.14,14.86,0,14.95-13.05,15.12-15.61v-8.48h-.17c-2.97,5.46-8.17,8.42-15.36,8.42C5.86,50.02,0,42.02,0,31.73S6.36,13.53,18.33,13.53c6.61,0,13.04,3.03,15.36,8.56h.17v-7.69h3.13Z" fill="#808285"></path><rect x="44.22" width="3.13" height="51.39" fill="#808285"></rect><path d="M83.75,30.38c-2.48,2.44-9.25,2.15-15.36,2.87-7.43,.72-11.64,3.02-11.64,8.56,0,4.46,3.71,8.07,11.15,8.07,14.29,0,15.86-10.65,15.86-12.6v-6.9Zm3.14,14.18c0,2.15,0,4.46,2.8,4.46,.58,0,1.32-.07,2.32-.21v2.3c-.92,.15-1.74,.29-2.56,.29-4.95,0-5.69-2.38-5.69-5.39v-1.96h-.17c-1.98,4.4-7.67,8.22-15.76,8.22s-14.2-2.67-14.2-10.45c0-8.63,8.58-10.43,15.6-10.94,14.03-.86,14.61-1.66,14.61-7.69,0-1.65-2.15-7.26-11.81-7.26-7.59,0-12.63,3.44-13.04,9.85h-3.14c.41-8.13,6.2-12.23,16.18-12.23,7.43,0,14.87,2.02,14.87,9.65v21.38Z" fill="#808285"></path><path d="M96.7,39.07c.49,6.84,6.36,10.81,14.03,10.81,5.53,0,13.46-1.44,13.46-7.86s-7.26-7.18-14.52-8.48c-7.35-1.3-14.62-2.94-14.62-10.51s8.17-9.5,15.36-9.5c8.99,0,15.68,3.38,15.68,11.8h-3.13c-.08-6.69-5.46-9.41-12.55-9.41-5.78,0-12.22,1.86-12.22,7.11,0,5.9,7.26,6.84,14.12,8.14,8.42,1.36,15.03,3.09,15.03,10.85s-9.17,10.23-16.6,10.23c-9.66,0-16.93-4.53-17.17-13.18h3.14Z" fill="#808285"></path><path d="M135.16,39.07c.49,6.84,6.35,10.81,14.03,10.81,5.53,0,13.46-1.44,13.46-7.86s-7.26-7.18-14.53-8.48c-7.35-1.3-14.62-2.94-14.62-10.51s8.18-9.5,15.36-9.5c9,0,15.69,3.38,15.69,11.8h-3.13c-.08-6.69-5.45-9.41-12.56-9.41-5.77,0-12.21,1.86-12.21,7.11,0,5.9,7.26,6.84,14.12,8.14,8.41,1.36,15.02,3.09,15.02,10.85s-9.17,10.23-16.59,10.23c-9.66,0-16.93-4.53-17.17-13.18h3.14Z" fill="#808285"></path><path d="M178.84,39.07c.49,6.84,6.36,10.81,14.04,10.81,5.53,0,13.46-1.44,13.46-7.86s-7.26-7.18-14.53-8.48c-7.35-1.3-14.61-2.94-14.61-10.51s8.18-9.5,15.36-9.5c9,0,15.69,3.38,15.69,11.8h-3.13c-.08-6.69-5.46-9.41-12.55-9.41-5.78,0-12.21,1.86-12.21,7.11,0,5.9,7.26,6.84,14.11,8.14,8.42,1.36,15.02,3.09,15.02,10.85s-9.16,10.23-16.59,10.23c-9.66,0-16.92-4.53-17.17-13.18h3.14Z" fill="#0084b6"></path><path d="M221.98,2.88V14.4h9.24v2.37h-9.24v25.84c0,5.97,3.22,6.55,9.16,6.4v2.38c-6.44,.36-12.63-.43-12.3-8.78V16.77h-7.85v-2.37h7.85V2.88h3.13Z" fill="#0084b6"></path><path d="M240.48,22.6h.24c1.66-4.82,8.6-8.7,16.28-8.42v2.73c-3.32-.36-7.92,.36-11.73,3.6-3.14,2.8-4.46,5.11-4.79,10.66v20.22h-3.14V14.4h3.14v8.2Z" fill="#0084b6"></path><path d="M286.17,30.38c-2.48,2.44-9.24,2.15-15.36,2.87-7.43,.72-11.63,3.02-11.63,8.56,0,4.46,3.71,8.07,11.14,8.07,14.29,0,15.85-10.65,15.85-12.6v-6.9Zm3.14,14.18c0,2.15,0,4.46,2.8,4.46,.58,0,1.32-.07,2.31-.21v2.3c-.91,.15-1.74,.29-2.56,.29-4.95,0-5.7-2.38-5.7-5.39v-1.96h-.16c-1.98,4.4-7.68,8.22-15.77,8.22s-14.2-2.67-14.2-10.45c0-8.63,8.58-10.43,15.6-10.94,14.04-.86,14.61-1.66,14.61-7.69,0-1.65-2.15-7.26-11.81-7.26-7.59,0-12.62,3.44-13.04,9.85h-3.14c.41-8.13,6.19-12.23,16.17-12.23,7.43,0,14.87,2.02,14.87,9.65v21.38Z" fill="#0084b6"></path><path d="M303.33,2.88V14.4h9.24v2.37h-9.24v25.84c0,5.97,3.22,6.55,9.15,6.4v2.38c-6.44,.36-12.62-.43-12.3-8.78V16.77h-7.84v-2.37h7.84V2.88h3.14Z" fill="#0084b6"></path><path d="M347.75,30.87c-.17-7.76-5.78-14.95-15.53-14.95s-14.94,7.62-15.6,14.95h31.13Zm-31.13,2.38c-.16,8.71,5.11,16.63,15.6,16.63,8.01,0,13.71-4.18,15.19-11.02h3.14c-1.65,8.65-8.26,13.4-18.34,13.4-12.38,0-18.9-8.5-18.74-18.72-.16-10.15,5.95-20.01,18.74-20.01s19.24,9.14,18.66,19.72h-34.26Z" fill="#0084b6"></path><path d="M359.51,31.73c0,8.72,5.2,15.92,15.19,15.92s15.44-7.56,15.44-15.92-5.04-15.82-15.44-15.82-15.19,7.98-15.19,15.82m33.84-17.33V49.45c-.16,2.8,0,19.12-18.32,18.62-9.08,0-16.1-2.95-16.6-11.52h3.14c.67,6.56,6.6,9.14,13.53,9.14,14.87,0,14.99-13.14,15.11-15.61v-8.48h-.16c-2.98,5.46-8.17,8.42-15.36,8.42-12.47,0-18.33-8-18.33-18.28s6.36-18.2,18.33-18.2c6.61,0,13.04,3.03,15.36,8.56h.16v-7.69h3.14Z" fill="#0084b6"></path><rect x="400.5" y="14.4" width="3.14" height="36.99" fill="#0084b6"></rect><path d="M444.34,30.87c-.16-7.76-5.78-14.95-15.52-14.95s-14.94,7.62-15.6,14.95h31.12Zm-31.63,2.38c-.16,8.71,5.62,16.63,16.11,16.63,8.01,0,13.7-4.18,15.19-11.02h3.14c-1.65,8.65-8.25,13.4-18.32,13.4-12.38,0-18.91-8.5-18.74-18.72-.17-10.15,5.94-20.01,18.74-20.01s19.23,9.14,18.66,19.72h-34.77Z" fill="#0084b6"></path><path d="M454.65,39.07c.49,6.84,6.35,10.81,14.04,10.81,5.52,0,13.45-1.44,13.45-7.86s-7.27-7.18-14.53-8.48c-7.35-1.3-14.61-2.94-14.61-10.51s8.17-9.5,15.36-9.5c9,0,15.68,3.38,15.68,11.8h-3.14c-.08-6.69-5.45-9.41-12.54-9.41-5.79,0-12.23,1.86-12.23,7.11,0,5.9,7.27,6.84,14.12,8.14,8.42,1.36,15.02,3.09,15.02,10.85s-9.16,10.23-16.59,10.23c-9.67,0-16.93-4.53-17.18-13.18h3.14Z" fill="#0084b6"></path><path d="M3.14,82.59h7.35c2.52,0,4.12-.84,4.12-3.33,0-2.27-1.46-3-3.49-3H3.14v6.33Zm0,8.77h7.8c2.41,0,4.23-.98,4.23-3.54,0-2.69-1.61-3.46-3.77-3.46H3.14v7Zm-1.87-16.9H11.47c3.52,0,5.01,2.08,5.01,4.72,0,1.82-.97,3.48-3.1,4.01v.04c2.37,.37,3.8,2.17,3.8,4.58,0,3.89-3.17,5.34-5.94,5.34H1.27v-18.7Z" fill="#808285"></path><path d="M27.11,91.95c3.53,0,5.56-2.32,5.56-5.6s-2.03-5.6-5.56-5.6-5.55,2.34-5.55,5.59,2.03,5.61,5.55,5.61m0-12.81c5.04,0,7.41,3.42,7.41,7.21s-2.38,7.21-7.41,7.21-7.41-3.42-7.41-7.22,2.39-7.2,7.41-7.2" fill="#808285"></path><path d="M48.54,84.39c0-2.68-1.57-3.64-3.94-3.64-3.64,0-5.3,1.94-5.3,5.03v7.39h-1.86v-13.61h1.86v2.66h.05c.55-1.43,2.51-3.08,5.4-3.08,4.35,0,5.66,2.35,5.66,5.6v8.43h-1.87v-8.78Z" fill="#808285"></path><path d="M60.42,80.75c-2.94,0-5.25,2.15-5.25,5.59,0,2.72,1.45,5.6,5.25,5.6,3.09,0,5.48-2.04,5.48-5.6,0-2.79-1.68-5.59-5.48-5.59m5.38,9.68h-.05c-.5,1.15-2.15,3.14-5.32,3.14-5.36,0-7.1-3.9-7.1-7.22,0-3.79,2.23-7.21,7.1-7.21,2.5,0,4.48,1.4,5.33,3.13h.06v-7.95h1.85v18.85h-1.86v-2.73Z" fill="#808285"></path><path d="M70.97,74.32h1.87v2.88h-1.87v-2.88Zm0,5.24h1.87v13.6h-1.87v-13.6Z" fill="#808285"></path><path d="M87.24,84.39c0-2.68-1.58-3.64-3.94-3.64-3.65,0-5.3,1.93-5.3,5.02v7.38h-1.86v-13.6h1.86v2.66h.04c.55-1.43,2.52-3.07,5.41-3.07,4.34,0,5.65,2.35,5.65,5.59v8.42h-1.86v-8.77Z" fill="#808285"></path><path d="M99.02,80.76c-3.26,0-5.38,1.97-5.38,5.31,0,3.97,2.39,5.47,5.53,5.47s5.43-2.03,5.43-5.47c0-2.84-1.88-5.31-5.58-5.31m5.53-1.2h1.86v13.07c-.01,5.02-3.9,6.3-7.34,6.29-5.95,0-6.53-2.96-6.68-4.42h1.71c.28,1.46,.65,2.95,5.05,2.95,3.42,0,5.41-1.67,5.41-4.95v-2.43h-.06c-.7,1.4-2.41,3.1-5.78,3.1s-6.94-1.8-6.94-7.1c0-3.6,2.22-6.92,7.14-6.92,2.54,0,4.69,.98,5.58,3.05h.05v-2.63Z" fill="#808285"></path><path d="M118.46,75.27h1.86v4.3h3.69v1.47h-3.69v8.99c0,1.18,.34,1.73,1.85,1.73,.9,0,1.49-.08,1.84-.16v1.63c-.71,.1-1.43,.14-2.03,.14-2.89,0-3.52-1.16-3.52-3.36v-8.96s-2.84,0-2.84,0v-1.47h2.84v-4.3Z" fill="#808285"></path><path d="M126.55,74.32h1.85v7.9h.06c.56-1.42,2.51-3.08,5.4-3.08,4.35,0,5.65,2.35,5.65,5.59v8.43h-1.86v-8.77c0-2.68-1.58-3.64-3.94-3.64-3.65,0-5.31,1.94-5.31,5.02v7.38h-1.86v-18.84Z" fill="#808285"></path><path d="M154.7,85.36c-.52-3.35-2.89-4.6-5.38-4.6s-4.95,1.27-5.37,4.6h10.75Zm1.54,3.47c-.76,2.4-2.72,4.74-7.04,4.74-5.35,0-7.11-3.9-7.11-7.22,0-3.77,2.23-7.21,7.11-7.2,3.37,0,7.36,1.52,7.36,7.67h-12.61c0,2.84,1.93,5.14,5.25,5.14,3.12,0,4.53-1.07,5.18-3.13h1.86Z" fill="#808285"></path><path d="M174.75,76.42l-4.01,9.3h7.95l-3.95-9.3Zm4.69,11.08h-9.45l-2.43,5.68h-2.02l8.15-18.7,2.16,.02,8.14,18.68h-2.16l-2.38-5.68Z" fill="#808285"></path><path d="M185.77,79.57h1.86v3.11h.05c.69-1.63,1.91-3.54,5-3.54,.54,0,.83,.05,1.11,.11v1.98c-.57-.1-1.13-.15-1.71-.15-2.01,0-4.45,1.29-4.45,5.14v6.93h-1.86v-13.59Z" fill="#808285"></path><path d="M197.82,75.28h1.86v4.3h3.69v1.47h-3.69v8.99c0,1.18,.35,1.73,1.86,1.73,.91,0,1.48-.08,1.83-.16v1.63c-.7,.1-1.43,.14-2.03,.14-2.89,0-3.52-1.15-3.52-3.36v-8.96h-2.83v-1.47h2.83v-4.3Z" fill="#808285"></path><path d="M223.67,85.85c-.82,.55-2.09,.65-5.8,1.02-2.17,.2-3.42,.89-3.42,2.5,0,2.14,1.76,2.75,3.76,2.75,2.51,0,5.46-1.42,5.46-4.21v-2.07Zm-10.5-2.12c.28-2.84,1.76-4.57,6.23-4.57s5.98,1.38,5.98,4.01v7.13c0,1.13,.31,1.51,1.03,1.51l.98-.05v1.3c-.37,.08-.96,.22-1.55,.22-1.89,0-1.99-1.33-2.01-2.41h-.04c-.58,.89-1.84,2.72-6.11,2.72-2.24,0-5.08-1.02-5.08-4.09,0-3.68,3.65-4.1,6.52-4.26,4.06-.24,4.57-.47,4.57-1.8,0-1.97-1.26-2.66-4.32-2.66s-4.34,.8-4.48,2.95h-1.7Z" fill="#808285"></path><path d="M240.23,84.42c0-2.7-1.59-3.64-3.95-3.64-3.66,0-5.31,1.93-5.31,5.03v7.36h-1.85v-13.6h1.85v2.66h.06c.55-1.42,2.51-3.07,5.4-3.07,4.35,0,5.65,2.34,5.65,5.6v8.42h-1.85v-8.76Z" fill="#808285"></path><path d="M252.1,80.78c-2.94,0-5.25,2.13-5.25,5.59,0,2.71,1.45,5.58,5.25,5.59,3.09,0,5.48-2.04,5.48-5.59,0-2.79-1.68-5.59-5.48-5.59m5.39,9.67h-.07c-.5,1.15-2.16,3.16-5.32,3.16-5.35,0-7.11-3.91-7.11-7.23,0-3.78,2.23-7.21,7.11-7.21,2.49,0,4.47,1.41,5.32,3.13h.07v-7.95h1.85v18.83h-1.85v-2.72Z" fill="#808285"></path><path d="M282.44,79.83c-.25-3.19-2.74-4.01-5.62-4.01s-5.07,1.17-5.07,3.3c0,2.41,2.18,2.99,6.55,3.74,3.26,.59,6.53,1.36,6.53,4.96,0,4.57-3.99,5.82-7.48,5.82-4.56,0-7.87-1.62-8.15-6.65h1.86c.33,3.93,2.83,4.86,6.29,4.86,2.69,0,5.47-.75,5.47-3.71s-3.25-3.19-6.52-3.73c-4.28-.72-6.57-1.96-6.57-4.99,0-4.06,3.62-5.4,7.09-5.4,3.67,0,7.36,1.37,7.48,5.8h-1.86Z" fill="#808285"></path><path d="M300.62,88.31c-.35,1.79-1.86,5.29-6.62,5.29s-7.36-2.97-7.36-7.23,2.41-7.2,7.36-7.2c4.48,0,6.21,2.87,6.52,4.85h-1.87c-.58-2.31-2.33-3.23-4.65-3.23-3.74,0-5.49,2.44-5.49,5.58,0,3.39,1.95,5.59,5.49,5.59,2.75,0,4.28-1.53,4.76-3.65h1.86Z" fill="#808285"></path><path d="M303.13,74.37h1.87v2.85h-1.87v-2.85Zm0,5.21h1.87v13.6h-1.87v-13.6Z" fill="#808285"></path><path d="M320.46,85.39c-.52-3.36-2.88-4.6-5.37-4.6s-4.97,1.26-5.38,4.59h10.75Zm1.54,3.46c-.76,2.4-2.71,4.76-7.03,4.76-5.35,0-7.11-3.89-7.11-7.23,0-3.78,2.23-7.2,7.11-7.2,3.36,0,7.35,1.51,7.35,7.68h-12.6c0,2.82,1.94,5.11,5.25,5.12,3.1,0,4.52-1.07,5.18-3.13h1.86Z" fill="#808285"></path><path d="M336.18,84.43c0-2.69-1.57-3.64-3.94-3.64-3.64,0-5.3,1.92-5.3,5.02v7.37h-1.86v-13.6h1.86v2.66h.04c.56-1.42,2.52-3.07,5.4-3.07,4.35,0,5.67,2.35,5.67,5.59v8.43h-1.87v-8.76Z" fill="#808285"></path><path d="M354.7,88.31c-.35,1.78-1.86,5.29-6.62,5.29s-7.36-2.96-7.36-7.23,2.42-7.2,7.36-7.2c4.48,0,6.22,2.89,6.52,4.87h-1.86c-.58-2.33-2.34-3.24-4.66-3.24-3.74,0-5.49,2.44-5.49,5.57,0,3.39,1.97,5.6,5.49,5.6,2.74,0,4.28-1.54,4.75-3.66h1.86Z" fill="#808285"></path><path d="M369.43,85.39c-.54-3.36-2.9-4.59-5.39-4.59s-4.94,1.26-5.38,4.59h10.77Zm1.52,3.46c-.75,2.39-2.72,4.75-7.04,4.75-5.35,0-7.11-3.89-7.11-7.23,0-3.78,2.24-7.2,7.11-7.2,3.38,0,7.36,1.51,7.36,7.68h-12.6c0,2.81,1.93,5.12,5.25,5.12,3.12,0,4.52-1.06,5.18-3.12h1.86Z" fill="#808285"></path><path d="M388.35,91.99c3.52,0,5.56-2.34,5.56-5.61s-2.04-5.58-5.56-5.58-5.55,2.31-5.55,5.58,2.04,5.59,5.55,5.61m0-12.82c5.02,0,7.41,3.43,7.41,7.21s-2.38,7.22-7.41,7.22c-5.02,0-7.41-3.44-7.41-7.22s2.39-7.21,7.41-7.21" fill="#808285"></path><path d="M399.8,81.06h-2.83v-1.47h2.83v-1.81c0-2.56,1.23-3.41,3.68-3.41,.7,0,1.51,.04,2.08,.09v1.64c-.57-.06-1.16-.12-1.74-.12-1.65,0-2.16,.45-2.16,2.03v1.59h3.68v1.47h-3.68v12.13h-1.86v-12.13Z" fill="#808285"></path><path d="M430.94,89.67h-.04c-1.83,2.73-3.95,3.99-7.47,3.99-6.08,0-9.41-3.97-9.41-9.81s3.65-9.81,9.61-9.81c5.01,0,8.19,2.95,8.66,6.39h-2c-.73-3.14-3.45-4.58-6.67-4.58-4.91,0-7.59,3.1-7.59,8.01s2.46,8.05,7.24,8.05c5.37,0,7.08-3.19,7.63-6.54h-6.59v-1.77h8.3v9.62h-1.43l-.26-3.54Z" fill="#808285"></path><rect x="436.17" y="74.37" width="1.85" height="18.84" fill="#808285"></rect><path d="M451.74,85.88c-.83,.55-2.09,.63-5.8,1.02-2.16,.21-3.42,.88-3.42,2.51,0,2.11,1.77,2.72,3.77,2.72,2.51,0,5.45-1.4,5.45-4.2v-2.06Zm-10.5-2.11c.26-2.84,1.76-4.59,6.23-4.59s5.99,1.42,5.99,4.04v7.11c0,1.14,.3,1.51,1.02,1.51l.99-.06v1.31c-.38,.09-.96,.21-1.56,.21-1.88,0-1.99-1.34-2.02-2.41h-.05c-.58,.89-1.83,2.73-6.1,2.72-2.24,0-5.08-1.01-5.08-4.08,0-3.68,3.65-4.1,6.51-4.27,4.07-.23,4.57-.46,4.57-1.81,0-1.96-1.25-2.65-4.32-2.65s-4.35,.8-4.48,2.96h-1.7Z" fill="#808285"></path><path d="M466.9,83.63c-.47-2.2-1.77-2.82-4.49-2.82-1.96,0-3.77,.43-3.77,2.31,0,1.42,.88,1.7,4.85,2.25,3.98,.55,5.65,1.28,5.65,3.93s-2.11,4.32-6.2,4.32-6.6-1.41-6.6-4.69h1.71c.32,2.28,1.55,3.06,4.89,3.06,2.58,0,4.34-.53,4.34-2.58,0-1.38-.94-1.97-5-2.39-4.08-.41-5.51-1.4-5.51-3.8s1.83-4.04,5.63-4.04c4.25,0,5.97,1.6,6.2,4.45h-1.71Z" fill="#808285"></path><path d="M481.38,83.63c-.48-2.2-1.78-2.81-4.5-2.82-1.95,0-3.76,.43-3.76,2.31,0,1.42,.87,1.7,4.85,2.25,4,.55,5.65,1.28,5.65,3.93s-2.11,4.32-6.21,4.32-6.61-1.41-6.61-4.69h1.71c.33,2.28,1.55,3.06,4.89,3.06,2.59,0,4.35-.53,4.35-2.58,0-1.38-.93-1.97-5-2.38-4.07-.43-5.51-1.42-5.51-3.81s1.84-4.05,5.63-4.05c4.25,0,5.98,1.6,6.21,4.45h-1.71Z" fill="#808285"></path></svg> 